<svg xmlns="http://www.w3.org/2000/svg" version="1.1" xmlns:xlink="http://www.w3.org/1999/xlink" xmlns:svgjs="http://svgjs.com/svgjs" width="1300" height="750" preserveAspectRatio="none" viewBox="0 0 1300 750"><g mask="url(&quot;#SvgjsMask1024&quot;)" fill="none"><rect width="1300" height="750" x="0" y="0" fill="#0e2a47"></rect><path d="M492.39 140.6L492.39 143.97L521.15 143.97L521.15 140.6zM515.19 142.29 a5.96 5.96 0 1 0 11.92 0 a5.96 5.96 0 1 0 -11.92 0zM488.14 165.32L486.85 168.43L505.21 176.03L506.5 172.92zM499.89 174.48 a5.96 5.96 0 1 0 11.92 0 a5.96 5.96 0 1 0 -11.92 0zM474.76 186.53L472.38 188.91L479.61 196.13L481.99 193.75zM474.84 194.94 a5.96 5.96 0 1 0 11.92 0 a5.96 5.96 0 1 0 -11.92 0zM454.28 201L451.17 202.29L460.47 224.74L463.58 223.45zM456.06 224.1 a5.96 5.96 0 1 0 11.92 0 a5.96 5.96 0 1 0 -11.92 0zM429.82 206.54L426.46 206.54L426.46 233.87L429.82 233.87zM422.18 233.87 a5.96 5.96 0 1 0 11.92 0 a5.96 5.96 0 1 0 -11.92 0zM405.11 202.29L402 201L394.72 218.56L397.83 219.85zM390.32 219.21 a5.96 5.96 0 1 0 11.92 0 a5.96 5.96 0 1 0 -11.92 0zM383.9 188.91L381.52 186.53L363.22 204.83L365.6 207.21zM358.45 206.02 a5.96 5.96 0 1 0 11.92 0 a5.96 5.96 0 1 0 -11.92 0zM369.42 168.43L368.14 165.32L350.17 172.76L351.46 175.87zM344.86 174.31 a5.96 5.96 0 1 0 11.92 0 a5.96 5.96 0 1 0 -11.92 0zM363.89 143.97L363.89 140.6L338.33 140.6L338.33 143.97zM332.37 142.29 a5.96 5.96 0 1 0 11.92 0 a5.96 5.96 0 1 0 -11.92 0zM368.14 119.25L369.42 116.14L357.68 111.28L356.39 114.39zM351.08 112.83 a5.96 5.96 0 1 0 11.92 0 a5.96 5.96 0 1 0 -11.92 0zM381.52 98.04L383.9 95.66L376.59 88.36L374.21 90.74zM369.44 89.55 a5.96 5.96 0 1 0 11.92 0 a5.96 5.96 0 1 0 -11.92 0zM402 83.57L405.11 82.28L396.03 60.37L392.92 61.66zM388.51 61.01 a5.96 5.96 0 1 0 11.92 0 a5.96 5.96 0 1 0 -11.92 0zM426.46 78.04L429.82 78.04L429.82 66.68L426.46 66.68zM422.18 66.68 a5.96 5.96 0 1 0 11.92 0 a5.96 5.96 0 1 0 -11.92 0zM451.17 82.28L454.28 83.57L459.58 70.77L456.48 69.48zM452.07 70.12 a5.96 5.96 0 1 0 11.92 0 a5.96 5.96 0 1 0 -11.92 0zM472.38 95.66L474.76 98.04L486.24 86.57L483.86 84.19zM479.09 85.38 a5.96 5.96 0 1 0 11.92 0 a5.96 5.96 0 1 0 -11.92 0zM486.85 116.14L488.14 119.25L504.06 112.66L502.77 109.55zM497.46 111.11 a5.96 5.96 0 1 0 11.92 0 a5.96 5.96 0 1 0 -11.92 0zM363.87 142.29 a64.27 64.27 0 1 0 128.54 0 a64.27 64.27 0 1 0 -128.54 0z" fill="#488fdb"></path><path d="M368.11 119.32 A63.272000000000006 63.272000000000006 0 0 1 477.96 101.68M477.96 101.68 A128.544 128.544 0 0 0 368.11 119.32" fill="#2672c3" fill-rule="nonzero"></path><path d="M364.25 147.56 a4.5 4.5 0 1 0 9 0 a4.5 4.5 0 1 0 -9 0zM454.54 121.54 a12.85 12.85 0 1 0 25.7 0 a12.85 12.85 0 1 0 -25.7 0zM479.95 152.09 a5.78 5.78 0 1 0 11.56 0 a5.78 5.78 0 1 0 -11.56 0zM425.46 85.29 a7.07 7.07 0 1 0 14.14 0 a7.07 7.07 0 1 0 -14.14 0zM387.52 150.4 a12.85 12.85 0 1 0 25.7 0 a12.85 12.85 0 1 0 -25.7 0zM423.77 174.36 a12.85 12.85 0 1 0 25.7 0 a12.85 12.85 0 1 0 -25.7 0zM411.82 107.89 a6.43 6.43 0 1 0 12.86 0 a6.43 6.43 0 1 0 -12.86 0zM462.46 171.32 a2.57 2.57 0 1 0 5.14 0 a2.57 2.57 0 1 0 -5.14 0zM426.13 128.99 a5.78 5.78 0 1 0 11.56 0 a5.78 5.78 0 1 0 -11.56 0zM403.19 178.22 a2.57 2.57 0 1 0 5.14 0 a2.57 2.57 0 1 0 -5.14 0z" fill="#2672c3" fill-rule="nonzero"></path><path d="M1099.13 460.01L1099.13 463.37L1129.98 463.37L1129.98 460.01zM1124.02 461.69 a5.96 5.96 0 1 0 11.92 0 a5.96 5.96 0 1 0 -11.92 0zM1094.88 484.72L1093.6 487.83L1106.11 493.01L1107.39 489.91zM1100.79 491.46 a5.96 5.96 0 1 0 11.92 0 a5.96 5.96 0 1 0 -11.92 0zM1081.5 505.93L1079.12 508.31L1089.85 519.04L1092.23 516.66zM1085.08 517.85 a5.96 5.96 0 1 0 11.92 0 a5.96 5.96 0 1 0 -11.92 0zM1061.02 520.41L1057.91 521.69L1068.84 548.08L1071.95 546.79zM1064.44 547.44 a5.96 5.96 0 1 0 11.92 0 a5.96 5.96 0 1 0 -11.92 0zM1036.56 525.94L1033.2 525.94L1033.2 557L1036.56 557zM1028.92 557 a5.96 5.96 0 1 0 11.92 0 a5.96 5.96 0 1 0 -11.92 0zM1011.85 521.69L1008.74 520.41L1002.61 535.22L1005.71 536.5zM998.2 535.86 a5.96 5.96 0 1 0 11.92 0 a5.96 5.96 0 1 0 -11.92 0zM990.64 508.31L988.26 505.93L981.1 513.09L983.48 515.47zM976.33 514.28 a5.96 5.96 0 1 0 11.92 0 a5.96 5.96 0 1 0 -11.92 0zM976.17 487.83L974.88 484.72L951.26 494.51L952.55 497.61zM945.95 496.06 a5.96 5.96 0 1 0 11.92 0 a5.96 5.96 0 1 0 -11.92 0zM970.63 463.37L970.63 460.01L942.15 460.01L942.15 463.37zM936.19 461.69 a5.96 5.96 0 1 0 11.92 0 a5.96 5.96 0 1 0 -11.92 0zM974.88 438.66L976.17 435.55L961.13 429.32L959.85 432.43zM954.53 430.88 a5.96 5.96 0 1 0 11.92 0 a5.96 5.96 0 1 0 -11.92 0zM988.26 417.45L990.64 415.07L984.74 409.17L982.36 411.54zM977.59 410.36 a5.96 5.96 0 1 0 11.92 0 a5.96 5.96 0 1 0 -11.92 0zM1008.74 402.98L1011.85 401.69L1001.57 376.88L998.46 378.17zM994.06 377.53 a5.96 5.96 0 1 0 11.92 0 a5.96 5.96 0 1 0 -11.92 0zM1033.2 397.44L1036.56 397.44L1036.56 378.97L1033.2 378.97zM1028.92 378.97 a5.96 5.96 0 1 0 11.92 0 a5.96 5.96 0 1 0 -11.92 0zM1057.91 401.69L1061.02 402.98L1070.9 379.13L1067.79 377.84zM1063.39 378.49 a5.96 5.96 0 1 0 11.92 0 a5.96 5.96 0 1 0 -11.92 0zM1079.12 415.07L1081.5 417.45L1098.04 400.91L1095.66 398.53zM1090.89 399.72 a5.96 5.96 0 1 0 11.92 0 a5.96 5.96 0 1 0 -11.92 0zM1093.6 435.55L1094.88 438.66L1114.5 430.53L1113.21 427.42zM1107.89 428.98 a5.96 5.96 0 1 0 11.92 0 a5.96 5.96 0 1 0 -11.92 0zM970.61 461.69 a64.27 64.27 0 1 0 128.54 0 a64.27 64.27 0 1 0 -128.54 0z" fill="#488fdb"></path><path d="M987.76 505.4 A63.272000000000006 63.272000000000006 0 0 1 1020.46 399.06M1020.46 399.06 A128.544 128.544 0 0 0 987.76 505.4" fill="#2672c3" fill-rule="nonzero"></path><path d="M1004.24 433.54 a12.85 12.85 0 1 0 25.7 0 a12.85 12.85 0 1 0 -25.7 0zM1013.21 496.68 a12.85 12.85 0 1 0 25.7 0 a12.85 12.85 0 1 0 -25.7 0zM1041.74 423.33 a7.71 7.71 0 1 0 15.42 0 a7.71 7.71 0 1 0 -15.42 0zM1083.08 456.25 a7.71 7.71 0 1 0 15.42 0 a7.71 7.71 0 1 0 -15.42 0zM1059.89 467.81 a6.43 6.43 0 1 0 12.86 0 a6.43 6.43 0 1 0 -12.86 0zM1064.38 506.21 a6.43 6.43 0 1 0 12.86 0 a6.43 6.43 0 1 0 -12.86 0zM1074.36 431.85 a5.78 5.78 0 1 0 11.56 0 a5.78 5.78 0 1 0 -11.56 0zM993.14 484.93 a4.5 4.5 0 1 0 9 0 a4.5 4.5 0 1 0 -9 0zM1036.44 467.68 a5.14 5.14 0 1 0 10.28 0 a5.14 5.14 0 1 0 -10.28 0zM1013.17 404.79 a2.57 2.57 0 1 0 5.14 0 a2.57 2.57 0 1 0 -5.14 0z" fill="#2672c3" fill-rule="nonzero"></path><path d="M753.2 397.91L753.2 401.28L770.11 401.28L770.11 397.91zM764.15 399.6 a5.96 5.96 0 1 0 11.92 0 a5.96 5.96 0 1 0 -11.92 0zM748.95 422.63L747.66 425.74L776.27 437.59L777.55 434.48zM770.95 436.03 a5.96 5.96 0 1 0 11.92 0 a5.96 5.96 0 1 0 -11.92 0zM735.57 443.84L733.19 446.22L753.57 466.6L755.95 464.22zM748.8 465.41 a5.96 5.96 0 1 0 11.92 0 a5.96 5.96 0 1 0 -11.92 0zM715.09 458.31L711.98 459.6L722.95 486.09L726.06 484.8zM718.55 485.44 a5.96 5.96 0 1 0 11.92 0 a5.96 5.96 0 1 0 -11.92 0zM690.63 463.85L687.26 463.85L687.26 474.7L690.63 474.7zM682.99 474.7 a5.96 5.96 0 1 0 11.92 0 a5.96 5.96 0 1 0 -11.92 0zM665.91 459.6L662.81 458.31L652.76 482.57L655.86 483.86zM648.35 483.22 a5.96 5.96 0 1 0 11.92 0 a5.96 5.96 0 1 0 -11.92 0zM644.71 446.22L642.33 443.84L625.62 460.55L628 462.93zM620.85 461.74 a5.96 5.96 0 1 0 11.92 0 a5.96 5.96 0 1 0 -11.92 0zM630.23 425.74L628.94 422.63L615.45 428.22L616.73 431.33zM610.13 429.77 a5.96 5.96 0 1 0 11.92 0 a5.96 5.96 0 1 0 -11.92 0zM624.7 401.28L624.7 397.91L608.85 397.91L608.85 401.28zM602.89 399.6 a5.96 5.96 0 1 0 11.92 0 a5.96 5.96 0 1 0 -11.92 0zM628.94 376.56L630.23 373.45L610.53 365.29L609.24 368.4zM603.92 366.85 a5.96 5.96 0 1 0 11.92 0 a5.96 5.96 0 1 0 -11.92 0zM642.33 355.35L644.71 352.97L622.33 330.6L619.95 332.98zM615.18 331.79 a5.96 5.96 0 1 0 11.92 0 a5.96 5.96 0 1 0 -11.92 0zM662.81 340.88L665.91 339.59L661.9 329.89L658.79 331.18zM654.38 330.54 a5.96 5.96 0 1 0 11.92 0 a5.96 5.96 0 1 0 -11.92 0zM687.26 335.35L690.63 335.35L690.63 307.08L687.26 307.08zM682.99 307.08 a5.96 5.96 0 1 0 11.92 0 a5.96 5.96 0 1 0 -11.92 0zM711.98 339.59L715.09 340.88L725.82 314.98L722.71 313.7zM718.3 314.34 a5.96 5.96 0 1 0 11.92 0 a5.96 5.96 0 1 0 -11.92 0zM733.19 352.97L735.57 355.35L754 336.93L751.62 334.55zM746.85 335.74 a5.96 5.96 0 1 0 11.92 0 a5.96 5.96 0 1 0 -11.92 0zM747.66 373.45L748.95 376.56L758.98 372.41L757.7 369.3zM752.38 370.85 a5.96 5.96 0 1 0 11.92 0 a5.96 5.96 0 1 0 -11.92 0zM624.68 399.6 a64.27 64.27 0 1 0 128.54 0 a64.27 64.27 0 1 0 -128.54 0z" fill="#488fdb"></path><path d="M682.14 463.51 A63.272000000000006 63.272000000000006 0 0 1 636.92 361.85M636.92 361.85 A128.544 128.544 0 0 0 682.14 463.51" fill="#2672c3" fill-rule="nonzero"></path><path d="M643.66 377.15 a12.85 12.85 0 1 0 25.7 0 a12.85 12.85 0 1 0 -25.7 0zM699.51 435.72 a12.85 12.85 0 1 0 25.7 0 a12.85 12.85 0 1 0 -25.7 0zM674.92 435.97 a5.78 5.78 0 1 0 11.56 0 a5.78 5.78 0 1 0 -11.56 0zM735.73 424.06 a2.57 2.57 0 1 0 5.14 0 a2.57 2.57 0 1 0 -5.14 0zM692.29 348.55 a10.93 10.93 0 1 0 21.86 0 a10.93 10.93 0 1 0 -21.86 0zM670.36 351.32 a4.5 4.5 0 1 0 9 0 a4.5 4.5 0 1 0 -9 0zM676.51 394.64 a3.21 3.21 0 1 0 6.42 0 a3.21 3.21 0 1 0 -6.42 0zM706.97 384.85 a12.85 12.85 0 1 0 25.7 0 a12.85 12.85 0 1 0 -25.7 0zM635.54 415.9 a12.85 12.85 0 1 0 25.7 0 a12.85 12.85 0 1 0 -25.7 0zM726.27 356.26 a3.21 3.21 0 1 0 6.42 0 a3.21 3.21 0 1 0 -6.42 0z" fill="#2672c3" fill-rule="nonzero"></path><path d="M263.55 410.94L263.55 414.31L279.62 414.31L279.62 410.94zM273.66 412.62 a5.96 5.96 0 1 0 11.92 0 a5.96 5.96 0 1 0 -11.92 0zM259.3 435.66L258.01 438.76L284.97 449.93L286.26 446.82zM279.65 448.38 a5.96 5.96 0 1 0 11.92 0 a5.96 5.96 0 1 0 -11.92 0zM245.92 456.86L243.54 459.24L253.63 469.33L256.01 466.96zM248.86 468.14 a5.96 5.96 0 1 0 11.92 0 a5.96 5.96 0 1 0 -11.92 0zM225.44 471.34L222.33 472.63L229.7 490.41L232.8 489.12zM225.29 489.77 a5.96 5.96 0 1 0 11.92 0 a5.96 5.96 0 1 0 -11.92 0zM200.98 476.87L197.61 476.87L197.61 498.49L200.98 498.49zM193.34 498.49 a5.96 5.96 0 1 0 11.92 0 a5.96 5.96 0 1 0 -11.92 0zM176.26 472.63L173.15 471.34L163.28 495.17L166.39 496.46zM158.87 495.82 a5.96 5.96 0 1 0 11.92 0 a5.96 5.96 0 1 0 -11.92 0zM155.05 459.24L152.67 456.86L130.47 479.07L132.85 481.45zM125.7 480.26 a5.96 5.96 0 1 0 11.92 0 a5.96 5.96 0 1 0 -11.92 0zM140.58 438.76L139.29 435.66L127.44 440.57L128.73 443.67zM122.12 442.12 a5.96 5.96 0 1 0 11.92 0 a5.96 5.96 0 1 0 -11.92 0zM135.05 414.31L135.05 410.94L109.45 410.94L109.45 414.31zM103.49 412.62 a5.96 5.96 0 1 0 11.92 0 a5.96 5.96 0 1 0 -11.92 0zM139.29 389.59L140.58 386.48L129.41 381.85L128.12 384.96zM122.81 383.41 a5.96 5.96 0 1 0 11.92 0 a5.96 5.96 0 1 0 -11.92 0zM152.67 368.38L155.05 366L143.29 354.24L140.92 356.62zM136.14 355.43 a5.96 5.96 0 1 0 11.92 0 a5.96 5.96 0 1 0 -11.92 0zM173.15 353.91L176.26 352.62L167.66 331.86L164.55 333.15zM160.15 332.5 a5.96 5.96 0 1 0 11.92 0 a5.96 5.96 0 1 0 -11.92 0zM197.61 348.37L200.98 348.37L200.98 337.52L197.61 337.52zM193.34 337.52 a5.96 5.96 0 1 0 11.92 0 a5.96 5.96 0 1 0 -11.92 0zM222.33 352.62L225.44 353.91L235.04 330.72L231.93 329.43zM227.53 330.07 a5.96 5.96 0 1 0 11.92 0 a5.96 5.96 0 1 0 -11.92 0zM243.54 366L245.92 368.38L260.19 354.1L257.81 351.73zM253.04 352.91 a5.96 5.96 0 1 0 11.92 0 a5.96 5.96 0 1 0 -11.92 0zM258.01 386.48L259.3 389.59L279.7 381.14L278.41 378.03zM273.09 379.59 a5.96 5.96 0 1 0 11.92 0 a5.96 5.96 0 1 0 -11.92 0zM135.03 412.62 a64.27 64.27 0 1 0 128.54 0 a64.27 64.27 0 1 0 -128.54 0z" fill="#488fdb"></path><path d="M227.36 354.8 A63.272000000000006 63.272000000000006 0 0 1 235.45 465.76M235.45 465.76 A128.544 128.544 0 0 0 227.36 354.8" fill="#2672c3" fill-rule="nonzero"></path><path d="M187.38 443.63 a12.85 12.85 0 1 0 25.7 0 a12.85 12.85 0 1 0 -25.7 0zM201.09 354.48 a5.14 5.14 0 1 0 10.28 0 a5.14 5.14 0 1 0 -10.28 0zM138.81 391.74 a2.57 2.57 0 1 0 5.14 0 a2.57 2.57 0 1 0 -5.14 0zM212.54 415.55 a9 9 0 1 0 18 0 a9 9 0 1 0 -18 0zM156.31 385.22 a7.07 7.07 0 1 0 14.14 0 a7.07 7.07 0 1 0 -14.14 0zM241.39 426.79 a3.21 3.21 0 1 0 6.42 0 a3.21 3.21 0 1 0 -6.42 0zM229.87 361.92 a3.21 3.21 0 1 0 6.42 0 a3.21 3.21 0 1 0 -6.42 0zM192.48 410.32 a3.86 3.86 0 1 0 7.72 0 a3.86 3.86 0 1 0 -7.72 0zM144.99 421.39 a12.85 12.85 0 1 0 25.7 0 a12.85 12.85 0 1 0 -25.7 0zM178.3 370.49 a3.86 3.86 0 1 0 7.72 0 a3.86 3.86 0 1 0 -7.72 0z" fill="#2672c3" fill-rule="nonzero"></path><path d="M192.7 638.65L192.7 640.33L197.96 640.33L197.96 638.65zM194.98 639.49 a2.98 2.98 0 1 0 5.96 0 a2.98 2.98 0 1 0 -5.96 0zM190.58 651.01L189.93 652.56L202.17 657.63L202.82 656.08zM199.51 656.86 a2.98 2.98 0 1 0 5.96 0 a2.98 2.98 0 1 0 -5.96 0zM183.88 661.61L182.69 662.8L186.94 667.05L188.13 665.86zM184.56 666.46 a2.98 2.98 0 1 0 5.96 0 a2.98 2.98 0 1 0 -5.96 0zM173.64 668.85L172.09 669.49L177.95 683.64L179.5 682.99zM175.75 683.32 a2.98 2.98 0 1 0 5.96 0 a2.98 2.98 0 1 0 -5.96 0zM161.41 671.62L159.73 671.62L159.73 682.13L161.41 682.13zM157.59 682.13 a2.98 2.98 0 1 0 5.96 0 a2.98 2.98 0 1 0 -5.96 0zM149.06 669.49L147.5 668.85L145.78 673.02L147.33 673.66zM143.57 673.34 a2.98 2.98 0 1 0 5.96 0 a2.98 2.98 0 1 0 -5.96 0zM138.45 662.8L137.26 661.61L133.13 665.74L134.32 666.93zM130.75 666.34 a2.98 2.98 0 1 0 5.96 0 a2.98 2.98 0 1 0 -5.96 0zM131.22 652.56L130.57 651.01L124.15 653.67L124.8 655.22zM121.49 654.44 a2.98 2.98 0 1 0 5.96 0 a2.98 2.98 0 1 0 -5.96 0zM128.45 640.33L128.45 638.65L121.25 638.65L121.25 640.33zM118.27 639.49 a2.98 2.98 0 1 0 5.96 0 a2.98 2.98 0 1 0 -5.96 0zM130.57 627.97L131.22 626.42L121.99 622.6L121.34 624.15zM118.68 623.37 a2.98 2.98 0 1 0 5.96 0 a2.98 2.98 0 1 0 -5.96 0zM137.26 617.37L138.45 616.18L134.87 612.6L133.68 613.79zM131.29 613.19 a2.98 2.98 0 1 0 5.96 0 a2.98 2.98 0 1 0 -5.96 0zM147.5 610.13L149.06 609.49L143.11 595.14L141.56 595.79zM139.36 595.46 a2.98 2.98 0 1 0 5.96 0 a2.98 2.98 0 1 0 -5.96 0zM159.73 607.37L161.41 607.37L161.41 591.73L159.73 591.73zM157.59 591.73 a2.98 2.98 0 1 0 5.96 0 a2.98 2.98 0 1 0 -5.96 0zM172.09 609.49L173.64 610.13L178.08 599.43L176.52 598.79zM174.32 599.11 a2.98 2.98 0 1 0 5.96 0 a2.98 2.98 0 1 0 -5.96 0zM182.69 616.18L183.88 617.37L188.49 612.77L187.3 611.58zM184.91 612.17 a2.98 2.98 0 1 0 5.96 0 a2.98 2.98 0 1 0 -5.96 0zM189.93 626.42L190.58 627.97L195.38 625.98L194.74 624.43zM192.08 625.21 a2.98 2.98 0 1 0 5.96 0 a2.98 2.98 0 1 0 -5.96 0zM128.43 639.49 a32.14 32.14 0 1 0 64.28 0 a32.14 32.14 0 1 0 -64.28 0z" fill="#488fdb"></path><path d="M128.58 636.52 A31.136000000000003 31.136000000000003 0 0 1 179.09 613.22M179.09 613.22 A64.272 64.272 0 0 0 128.58 636.52" fill="#2672c3" fill-rule="nonzero"></path><path d="M176.76 622.05 a4.82 4.82 0 1 0 9.64 0 a4.82 4.82 0 1 0 -9.64 0zM132.31 625.69 a3.86 3.86 0 1 0 7.72 0 a3.86 3.86 0 1 0 -7.72 0zM178.82 639.21 a6.11 6.11 0 1 0 12.22 0 a6.11 6.11 0 1 0 -12.22 0zM149.61 663.6 a6.43 6.43 0 1 0 12.86 0 a6.43 6.43 0 1 0 -12.86 0zM142.75 634.39 a1.29 1.29 0 1 0 2.58 0 a1.29 1.29 0 1 0 -2.58 0zM174.04 665.23 a1.93 1.93 0 1 0 3.86 0 a1.93 1.93 0 1 0 -3.86 0zM167.05 615.97 a2.25 2.25 0 1 0 4.5 0 a2.25 2.25 0 1 0 -4.5 0zM142.12 615.99 a2.57 2.57 0 1 0 5.14 0 a2.57 2.57 0 1 0 -5.14 0zM156.71 610.84 a2.57 2.57 0 1 0 5.14 0 a2.57 2.57 0 1 0 -5.14 0zM163.87 650.97 a4.82 4.82 0 1 0 9.64 0 a4.82 4.82 0 1 0 -9.64 0z" fill="#2672c3" fill-rule="nonzero"></path><path d="M1258.04 145.23L1258.04 148.6L1280.12 148.6L1280.12 145.23zM1274.16 146.91 a5.96 5.96 0 1 0 11.92 0 a5.96 5.96 0 1 0 -11.92 0zM1253.8 169.95L1252.51 173.06L1267.75 179.37L1269.04 176.26zM1262.44 177.82 a5.96 5.96 0 1 0 11.92 0 a5.96 5.96 0 1 0 -11.92 0zM1240.42 191.16L1238.04 193.53L1245.78 201.28L1248.16 198.9zM1241.01 200.09 a5.96 5.96 0 1 0 11.92 0 a5.96 5.96 0 1 0 -11.92 0zM1219.94 205.63L1216.83 206.92L1222.46 220.52L1225.57 219.23zM1218.06 219.87 a5.96 5.96 0 1 0 11.92 0 a5.96 5.96 0 1 0 -11.92 0zM1195.48 211.16L1192.11 211.16L1192.11 233.6L1195.48 233.6zM1187.84 233.6 a5.96 5.96 0 1 0 11.92 0 a5.96 5.96 0 1 0 -11.92 0zM1170.76 206.92L1167.65 205.63L1163.75 215.04L1166.86 216.33zM1159.35 215.69 a5.96 5.96 0 1 0 11.92 0 a5.96 5.96 0 1 0 -11.92 0zM1149.55 193.53L1147.17 191.16L1126.62 211.71L1129 214.09zM1121.85 212.9 a5.96 5.96 0 1 0 11.92 0 a5.96 5.96 0 1 0 -11.92 0zM1135.08 173.06L1133.79 169.95L1117.9 176.53L1119.19 179.64zM1112.59 178.08 a5.96 5.96 0 1 0 11.92 0 a5.96 5.96 0 1 0 -11.92 0zM1129.55 148.6L1129.55 145.23L1106.3 145.23L1106.3 148.6zM1100.34 146.91 a5.96 5.96 0 1 0 11.92 0 a5.96 5.96 0 1 0 -11.92 0zM1133.79 123.88L1135.08 120.77L1113.54 111.85L1112.26 114.96zM1106.94 113.41 a5.96 5.96 0 1 0 11.92 0 a5.96 5.96 0 1 0 -11.92 0zM1147.17 102.67L1149.55 100.29L1141.24 91.98L1138.87 94.36zM1134.09 93.17 a5.96 5.96 0 1 0 11.92 0 a5.96 5.96 0 1 0 -11.92 0zM1167.65 88.2L1170.76 86.91L1162.83 67.77L1159.72 69.06zM1155.32 68.41 a5.96 5.96 0 1 0 11.92 0 a5.96 5.96 0 1 0 -11.92 0zM1192.11 82.66L1195.48 82.66L1195.48 55.22L1192.11 55.22zM1187.84 55.22 a5.96 5.96 0 1 0 11.92 0 a5.96 5.96 0 1 0 -11.92 0zM1216.83 86.91L1219.94 88.2L1231.57 60.12L1228.46 58.83zM1224.05 59.48 a5.96 5.96 0 1 0 11.92 0 a5.96 5.96 0 1 0 -11.92 0zM1238.04 100.29L1240.42 102.67L1248.24 94.84L1245.86 92.46zM1241.09 93.65 a5.96 5.96 0 1 0 11.92 0 a5.96 5.96 0 1 0 -11.92 0zM1252.51 120.77L1253.8 123.88L1274.92 115.13L1273.63 112.02zM1268.31 113.58 a5.96 5.96 0 1 0 11.92 0 a5.96 5.96 0 1 0 -11.92 0zM1129.53 146.91 a64.27 64.27 0 1 0 128.54 0 a64.27 64.27 0 1 0 -128.54 0z" fill="#488fdb"></path><path d="M1132.53 127.47 A63.272000000000006 63.272000000000006 0 0 1 1241.17 103.48M1241.17 103.48 A128.544 128.544 0 0 0 1132.53 127.47" fill="#2672c3" fill-rule="nonzero"></path><path d="M1216.01 111.36 a12.85 12.85 0 1 0 25.7 0 a12.85 12.85 0 1 0 -25.7 0zM1176.6 194.52 a12.85 12.85 0 1 0 25.7 0 a12.85 12.85 0 1 0 -25.7 0zM1152.92 154.06 a12.85 12.85 0 1 0 25.7 0 a12.85 12.85 0 1 0 -25.7 0zM1188 139.47 a2.57 2.57 0 1 0 5.14 0 a2.57 2.57 0 1 0 -5.14 0zM1214.53 185.84 a9 9 0 1 0 18 0 a9 9 0 1 0 -18 0zM1247.85 166.45 a3.21 3.21 0 1 0 6.42 0 a3.21 3.21 0 1 0 -6.42 0zM1156.13 116.14 a12.21 12.21 0 1 0 24.42 0 a12.21 12.21 0 1 0 -24.42 0zM1141 182.28 a2.57 2.57 0 1 0 5.14 0 a2.57 2.57 0 1 0 -5.14 0zM1191.85 106.63 a3.86 3.86 0 1 0 7.72 0 a3.86 3.86 0 1 0 -7.72 0zM1181.78 89.15 a3.21 3.21 0 1 0 6.42 0 a3.21 3.21 0 1 0 -6.42 0z" fill="#2672c3" fill-rule="nonzero"></path><path d="M217.2 170.06L217.2 172.17L229.83 172.17L229.83 170.06zM226.11 171.11 a3.72 3.72 0 1 0 7.44 0 a3.72 3.72 0 1 0 -7.44 0zM214.55 185.51L213.74 187.45L227.18 193.02L227.99 191.08zM223.87 192.05 a3.72 3.72 0 1 0 7.44 0 a3.72 3.72 0 1 0 -7.44 0zM206.18 198.77L204.69 200.25L214.04 209.6L215.53 208.11zM211.07 208.86 a3.72 3.72 0 1 0 7.44 0 a3.72 3.72 0 1 0 -7.44 0zM193.38 207.81L191.44 208.62L194.7 216.48L196.64 215.67zM191.95 216.08 a3.72 3.72 0 1 0 7.44 0 a3.72 3.72 0 1 0 -7.44 0zM178.09 211.27L175.99 211.27L175.99 218.57L178.09 218.57zM173.32 218.57 a3.72 3.72 0 1 0 7.44 0 a3.72 3.72 0 1 0 -7.44 0zM162.65 208.62L160.7 207.81L154.11 223.74L156.05 224.54zM151.36 224.14 a3.72 3.72 0 1 0 7.44 0 a3.72 3.72 0 1 0 -7.44 0zM149.39 200.25L147.9 198.77L139.12 207.55L140.6 209.04zM136.14 208.3 a3.72 3.72 0 1 0 7.44 0 a3.72 3.72 0 1 0 -7.44 0zM140.35 187.45L139.54 185.51L130.42 189.29L131.23 191.23zM127.1 190.26 a3.72 3.72 0 1 0 7.44 0 a3.72 3.72 0 1 0 -7.44 0zM136.89 172.17L136.89 170.06L128.96 170.06L128.96 172.17zM125.24 171.11 a3.72 3.72 0 1 0 7.44 0 a3.72 3.72 0 1 0 -7.44 0zM139.54 156.72L140.35 154.78L135.32 152.69L134.52 154.64zM131.2 153.66 a3.72 3.72 0 1 0 7.44 0 a3.72 3.72 0 1 0 -7.44 0zM147.9 143.46L149.39 141.98L138.68 131.26L137.19 132.75zM134.22 132.01 a3.72 3.72 0 1 0 7.44 0 a3.72 3.72 0 1 0 -7.44 0zM160.7 134.42L162.65 133.61L159.11 125.07L157.16 125.87zM154.42 125.47 a3.72 3.72 0 1 0 7.44 0 a3.72 3.72 0 1 0 -7.44 0zM175.99 130.96L178.09 130.96L178.09 113.6L175.99 113.6zM173.32 113.6 a3.72 3.72 0 1 0 7.44 0 a3.72 3.72 0 1 0 -7.44 0zM191.44 133.61L193.38 134.42L199.7 119.16L197.76 118.36zM195.01 118.76 a3.72 3.72 0 1 0 7.44 0 a3.72 3.72 0 1 0 -7.44 0zM204.69 141.98L206.18 143.46L219.77 129.87L218.28 128.38zM215.31 129.13 a3.72 3.72 0 1 0 7.44 0 a3.72 3.72 0 1 0 -7.44 0zM213.74 154.78L214.55 156.72L220.01 154.45L219.21 152.51zM215.89 153.48 a3.72 3.72 0 1 0 7.44 0 a3.72 3.72 0 1 0 -7.44 0zM136.87 171.11 a40.17 40.17 0 1 0 80.34 0 a40.17 40.17 0 1 0 -80.34 0z" fill="#488fdb"></path><path d="M216.96 166.6 A39.17 39.17 0 0 1 161.07 207.97M161.07 207.97 A80.34 80.34 0 0 0 216.96 166.6" fill="#2672c3" fill-rule="nonzero"></path><path d="M189.08 148.05 a8.03 8.03 0 1 0 16.06 0 a8.03 8.03 0 1 0 -16.06 0zM143.78 151.24 a6.83 6.83 0 1 0 13.66 0 a6.83 6.83 0 1 0 -13.66 0zM204.17 196.57 a1.61 1.61 0 1 0 3.22 0 a1.61 1.61 0 1 0 -3.22 0zM166.73 158.66 a8.03 8.03 0 1 0 16.06 0 a8.03 8.03 0 1 0 -16.06 0zM169.83 177.88 a3.21 3.21 0 1 0 6.42 0 a3.21 3.21 0 1 0 -6.42 0zM198.26 185.26 a2.41 2.41 0 1 0 4.82 0 a2.41 2.41 0 1 0 -4.82 0zM156.2 180.01 a2.81 2.81 0 1 0 5.62 0 a2.81 2.81 0 1 0 -5.62 0zM174.42 133.15 a2.01 2.01 0 1 0 4.02 0 a2.01 2.01 0 1 0 -4.02 0zM168.04 201.94 a8.03 8.03 0 1 0 16.06 0 a8.03 8.03 0 1 0 -16.06 0zM145.08 171.92 a2.81 2.81 0 1 0 5.62 0 a2.81 2.81 0 1 0 -5.62 0z" fill="#2672c3" fill-rule="nonzero"></path><path d="M625.02 691.99L625.02 693.67L634.52 693.67L634.52 691.99zM631.54 692.83 a2.98 2.98 0 1 0 5.96 0 a2.98 2.98 0 1 0 -5.96 0zM622.9 704.34L622.25 705.9L629.72 708.99L630.36 707.44zM627.06 708.21 a2.98 2.98 0 1 0 5.96 0 a2.98 2.98 0 1 0 -5.96 0zM616.2 714.95L615.01 716.14L618.67 719.79L619.86 718.6zM616.29 719.2 a2.98 2.98 0 1 0 5.96 0 a2.98 2.98 0 1 0 -5.96 0zM605.96 722.18L604.41 722.83L610.36 737.19L611.92 736.55zM608.16 736.87 a2.98 2.98 0 1 0 5.96 0 a2.98 2.98 0 1 0 -5.96 0zM593.73 724.95L592.05 724.95L592.05 733.32L593.73 733.32zM589.91 733.32 a2.98 2.98 0 1 0 5.96 0 a2.98 2.98 0 1 0 -5.96 0zM581.38 722.83L579.82 722.18L576.13 731.1L577.68 731.74zM573.93 731.42 a2.98 2.98 0 1 0 5.96 0 a2.98 2.98 0 1 0 -5.96 0zM570.77 716.14L569.58 714.95L561.6 722.93L562.79 724.12zM559.21 723.53 a2.98 2.98 0 1 0 5.96 0 a2.98 2.98 0 1 0 -5.96 0zM563.54 705.9L562.89 704.34L551.1 709.23L551.75 710.78zM548.45 710 a2.98 2.98 0 1 0 5.96 0 a2.98 2.98 0 1 0 -5.96 0zM560.77 693.67L560.77 691.99L546.54 691.99L546.54 693.67zM543.56 692.83 a2.98 2.98 0 1 0 5.96 0 a2.98 2.98 0 1 0 -5.96 0zM562.89 681.31L563.54 679.76L550.8 674.48L550.15 676.03zM547.49 675.26 a2.98 2.98 0 1 0 5.96 0 a2.98 2.98 0 1 0 -5.96 0zM569.58 670.71L570.77 669.52L563.88 662.62L562.69 663.81zM560.3 663.22 a2.98 2.98 0 1 0 5.96 0 a2.98 2.98 0 1 0 -5.96 0zM579.82 663.47L581.38 662.83L578.71 656.4L577.16 657.04zM574.96 656.72 a2.98 2.98 0 1 0 5.96 0 a2.98 2.98 0 1 0 -5.96 0zM592.05 660.7L593.73 660.7L593.73 647.78L592.05 647.78zM589.91 647.78 a2.98 2.98 0 1 0 5.96 0 a2.98 2.98 0 1 0 -5.96 0zM604.41 662.83L605.96 663.47L610.79 651.81L609.24 651.17zM607.04 651.49 a2.98 2.98 0 1 0 5.96 0 a2.98 2.98 0 1 0 -5.96 0zM615.01 669.52L616.2 670.71L626.56 660.35L625.37 659.16zM622.99 659.75 a2.98 2.98 0 1 0 5.96 0 a2.98 2.98 0 1 0 -5.96 0zM622.25 679.76L622.9 681.31L628.14 679.14L627.5 677.58zM624.84 678.36 a2.98 2.98 0 1 0 5.96 0 a2.98 2.98 0 1 0 -5.96 0zM560.75 692.83 a32.14 32.14 0 1 0 64.28 0 a32.14 32.14 0 1 0 -64.28 0z" fill="#488fdb"></path><path d="M619.65 675.03 A31.136000000000003 31.136000000000003 0 0 1 595 724.89M595 724.89 A64.272 64.272 0 0 0 619.65 675.03" fill="#2672c3" fill-rule="nonzero"></path><path d="M598.6 703.24 a6.43 6.43 0 1 0 12.86 0 a6.43 6.43 0 1 0 -12.86 0zM576.88 704.53 a6.43 6.43 0 1 0 12.86 0 a6.43 6.43 0 1 0 -12.86 0zM565.44 677.31 a3.54 3.54 0 1 0 7.08 0 a3.54 3.54 0 1 0 -7.08 0zM585.4 672.78 a6.43 6.43 0 1 0 12.86 0 a6.43 6.43 0 1 0 -12.86 0zM570 694.65 a1.93 1.93 0 1 0 3.86 0 a1.93 1.93 0 1 0 -3.86 0zM605.69 670.8 a4.18 4.18 0 1 0 8.36 0 a4.18 4.18 0 1 0 -8.36 0zM584.59 721.27 a3.21 3.21 0 1 0 6.42 0 a3.21 3.21 0 1 0 -6.42 0zM576.92 684.26 a2.25 2.25 0 1 0 4.5 0 a2.25 2.25 0 1 0 -4.5 0zM590.63 692.33 a2.57 2.57 0 1 0 5.14 0 a2.57 2.57 0 1 0 -5.14 0zM617.02 689.24 a3.86 3.86 0 1 0 7.72 0 a3.86 3.86 0 1 0 -7.72 0z" fill="#2672c3" fill-rule="nonzero"></path><path d="M710.26 144.93L710.26 147.03L720.45 147.03L720.45 144.93zM716.73 145.98 a3.72 3.72 0 1 0 7.44 0 a3.72 3.72 0 1 0 -7.44 0zM707.61 160.38L706.81 162.32L717.13 166.6L717.94 164.66zM713.82 165.63 a3.72 3.72 0 1 0 7.44 0 a3.72 3.72 0 1 0 -7.44 0zM699.25 173.63L697.76 175.12L708.78 186.14L710.27 184.66zM705.81 185.4 a3.72 3.72 0 1 0 7.44 0 a3.72 3.72 0 1 0 -7.44 0zM686.45 182.68L684.5 183.48L691.95 201.46L693.89 200.66zM689.2 201.06 a3.72 3.72 0 1 0 7.44 0 a3.72 3.72 0 1 0 -7.44 0zM671.16 186.14L669.06 186.14L669.06 202.89L671.16 202.89zM666.39 202.89 a3.72 3.72 0 1 0 7.44 0 a3.72 3.72 0 1 0 -7.44 0zM655.71 183.48L653.77 182.68L650.61 190.3L652.56 191.11zM647.86 190.7 a3.72 3.72 0 1 0 7.44 0 a3.72 3.72 0 1 0 -7.44 0zM642.46 175.12L640.97 173.63L631.29 183.31L632.78 184.8zM628.31 184.06 a3.72 3.72 0 1 0 7.44 0 a3.72 3.72 0 1 0 -7.44 0zM633.41 162.32L632.61 160.38L624.23 163.85L625.03 165.79zM620.91 164.82 a3.72 3.72 0 1 0 7.44 0 a3.72 3.72 0 1 0 -7.44 0zM629.95 147.03L629.95 144.93L618.45 144.93L618.45 147.03zM614.73 145.98 a3.72 3.72 0 1 0 7.44 0 a3.72 3.72 0 1 0 -7.44 0zM632.61 131.59L633.41 129.64L616.85 122.79L616.05 124.73zM612.73 123.76 a3.72 3.72 0 1 0 7.44 0 a3.72 3.72 0 1 0 -7.44 0zM640.97 118.33L642.46 116.84L632.92 107.3L631.43 108.79zM628.45 108.05 a3.72 3.72 0 1 0 7.44 0 a3.72 3.72 0 1 0 -7.44 0zM653.77 109.28L655.71 108.48L651.88 99.22L649.93 100.03zM647.19 99.63 a3.72 3.72 0 1 0 7.44 0 a3.72 3.72 0 1 0 -7.44 0zM669.06 105.83L671.16 105.83L671.16 92.73L669.06 92.73zM666.39 92.73 a3.72 3.72 0 1 0 7.44 0 a3.72 3.72 0 1 0 -7.44 0zM684.5 108.48L686.45 109.28L692.24 95.3L690.3 94.49zM687.55 94.89 a3.72 3.72 0 1 0 7.44 0 a3.72 3.72 0 1 0 -7.44 0zM697.76 116.84L699.25 118.33L707.06 110.52L705.57 109.03zM702.6 109.77 a3.72 3.72 0 1 0 7.44 0 a3.72 3.72 0 1 0 -7.44 0zM706.81 129.64L707.61 131.59L712.65 129.5L711.84 127.56zM708.52 128.53 a3.72 3.72 0 1 0 7.44 0 a3.72 3.72 0 1 0 -7.44 0zM629.94 145.98 a40.17 40.17 0 1 0 80.34 0 a40.17 40.17 0 1 0 -80.34 0z" fill="#488fdb"></path><path d="M696.73 115.9 A39.17 39.17 0 0 1 682.93 184.05M682.93 184.05 A80.34 80.34 0 0 0 696.73 115.9" fill="#2672c3" fill-rule="nonzero"></path><path d="M663.33 118.06 a8.03 8.03 0 1 0 16.06 0 a8.03 8.03 0 1 0 -16.06 0zM643.73 172.47 a7.63 7.63 0 1 0 15.26 0 a7.63 7.63 0 1 0 -15.26 0zM644.07 151.29 a5.22 5.22 0 1 0 10.44 0 a5.22 5.22 0 1 0 -10.44 0zM690.37 124.79 a6.03 6.03 0 1 0 12.06 0 a6.03 6.03 0 1 0 -12.06 0zM688.85 144.4 a5.62 5.62 0 1 0 11.24 0 a5.62 5.62 0 1 0 -11.24 0zM691.64 161.22 a2.81 2.81 0 1 0 5.62 0 a2.81 2.81 0 1 0 -5.62 0zM667.37 182.76 a3.21 3.21 0 1 0 6.42 0 a3.21 3.21 0 1 0 -6.42 0zM644.74 120.11 a5.22 5.22 0 1 0 10.44 0 a5.22 5.22 0 1 0 -10.44 0zM662.06 146.71 a6.03 6.03 0 1 0 12.06 0 a6.03 6.03 0 1 0 -12.06 0zM640.98 135.25 a2.81 2.81 0 1 0 5.62 0 a2.81 2.81 0 1 0 -5.62 0z" fill="#2672c3" fill-rule="nonzero"></path><path d="M445.2 616.06L445.2 619.01L468.77 619.01L468.77 616.06zM463.56 617.54 a5.21 5.21 0 1 0 10.42 0 a5.21 5.21 0 1 0 -10.42 0zM441.48 637.69L440.36 640.41L448.09 643.61L449.22 640.89zM443.44 642.25 a5.21 5.21 0 1 0 10.42 0 a5.21 5.21 0 1 0 -10.42 0zM429.78 656.25L427.69 658.33L447.1 677.73L449.18 675.65zM442.93 676.69 a5.21 5.21 0 1 0 10.42 0 a5.21 5.21 0 1 0 -10.42 0zM411.86 668.91L409.14 670.04L414.55 683.1L417.27 681.98zM410.7 682.54 a5.21 5.21 0 1 0 10.42 0 a5.21 5.21 0 1 0 -10.42 0zM390.45 673.75L387.51 673.75L387.51 684.06L390.45 684.06zM383.77 684.06 a5.21 5.21 0 1 0 10.42 0 a5.21 5.21 0 1 0 -10.42 0zM368.83 670.04L366.11 668.91L360.48 682.49L363.2 683.62zM356.63 683.06 a5.21 5.21 0 1 0 10.42 0 a5.21 5.21 0 1 0 -10.42 0zM350.27 658.33L348.19 656.25L333.62 670.81L335.7 672.9zM329.45 671.85 a5.21 5.21 0 1 0 10.42 0 a5.21 5.21 0 1 0 -10.42 0zM337.61 640.41L336.48 637.69L313.83 647.07L314.96 649.79zM309.19 648.43 a5.21 5.21 0 1 0 10.42 0 a5.21 5.21 0 1 0 -10.42 0zM332.76 619.01L332.76 616.06L323.83 616.06L323.83 619.01zM318.62 617.54 a5.21 5.21 0 1 0 10.42 0 a5.21 5.21 0 1 0 -10.42 0zM336.48 597.38L337.61 594.66L317.03 586.14L315.9 588.86zM311.26 587.5 a5.21 5.21 0 1 0 10.42 0 a5.21 5.21 0 1 0 -10.42 0zM348.19 578.82L350.27 576.74L338.91 565.38L336.82 567.46zM332.66 566.42 a5.21 5.21 0 1 0 10.42 0 a5.21 5.21 0 1 0 -10.42 0zM366.11 566.16L368.83 565.03L362.74 550.34L360.02 551.47zM356.17 550.91 a5.21 5.21 0 1 0 10.42 0 a5.21 5.21 0 1 0 -10.42 0zM387.51 561.32L390.45 561.32L390.45 552.34L387.51 552.34zM383.77 552.34 a5.21 5.21 0 1 0 10.42 0 a5.21 5.21 0 1 0 -10.42 0zM409.14 565.03L411.86 566.16L421.28 543.41L418.56 542.29zM414.71 542.85 a5.21 5.21 0 1 0 10.42 0 a5.21 5.21 0 1 0 -10.42 0zM427.69 576.74L429.78 578.82L448.22 560.38L446.13 558.3zM441.97 559.34 a5.21 5.21 0 1 0 10.42 0 a5.21 5.21 0 1 0 -10.42 0zM440.36 594.66L441.48 597.38L448.54 594.46L447.42 591.74zM442.77 593.1 a5.21 5.21 0 1 0 10.42 0 a5.21 5.21 0 1 0 -10.42 0zM332.74 617.54 a56.24 56.24 0 1 0 112.48 0 a56.24 56.24 0 1 0 -112.48 0z" fill="#488fdb"></path><path d="M444.82 624.22 A55.238 55.238 0 0 1 355.36 662.62M355.36 662.62 A112.476 112.476 0 0 0 444.82 624.22" fill="#2672c3" fill-rule="nonzero"></path><path d="M339.69 593.35 a9.56 9.56 0 1 0 19.12 0 a9.56 9.56 0 1 0 -19.12 0zM364.27 614.51 a11.25 11.25 0 1 0 22.5 0 a11.25 11.25 0 1 0 -22.5 0zM396.13 580.93 a11.25 11.25 0 1 0 22.5 0 a11.25 11.25 0 1 0 -22.5 0zM436.32 635.2 a2.81 2.81 0 1 0 5.62 0 a2.81 2.81 0 1 0 -5.62 0zM351.53 657.22 a3.94 3.94 0 1 0 7.88 0 a3.94 3.94 0 1 0 -7.88 0zM347.97 624.5 a3.37 3.37 0 1 0 6.74 0 a3.37 3.37 0 1 0 -6.74 0zM408.03 611.74 a10.12 10.12 0 1 0 20.24 0 a10.12 10.12 0 1 0 -20.24 0zM369.67 573.92 a7.87 7.87 0 1 0 15.74 0 a7.87 7.87 0 1 0 -15.74 0zM393.95 641.76 a11.25 11.25 0 1 0 22.5 0 a11.25 11.25 0 1 0 -22.5 0zM369.66 664.32 a4.5 4.5 0 1 0 9 0 a4.5 4.5 0 1 0 -9 0z" fill="#2672c3" fill-rule="nonzero"></path></g><defs><mask id="SvgjsMask1024"><rect width="1300" height="750" fill="#ffffff"></rect></mask></defs></svg>