<svg xmlns="http://www.w3.org/2000/svg" version="1.1" xmlns:xlink="http://www.w3.org/1999/xlink" xmlns:svgjs="http://svgjs.com/svgjs" width="1300" height="750" preserveAspectRatio="none" viewBox="0 0 1300 750"><g mask="url(&quot;#SvgjsMask1011&quot;)" fill="none"><path d="M173.68 504.94L173.68 508.31L182.86 508.31L182.86 504.94zM176.9 506.63 a5.96 5.96 0 1 0 11.92 0 a5.96 5.96 0 1 0 -11.92 0zM169.43 529.66L168.14 532.77L187.82 540.92L189.11 537.81zM182.51 539.36 a5.96 5.96 0 1 0 11.92 0 a5.96 5.96 0 1 0 -11.92 0zM156.05 550.87L153.67 553.25L159.96 559.53L162.34 557.15zM155.19 558.34 a5.96 5.96 0 1 0 11.92 0 a5.96 5.96 0 1 0 -11.92 0zM135.57 565.34L132.46 566.63L140.73 586.58L143.84 585.3zM136.32 585.94 a5.96 5.96 0 1 0 11.92 0 a5.96 5.96 0 1 0 -11.92 0zM111.11 570.87L107.75 570.87L107.75 591.44L111.11 591.44zM103.47 591.44 a5.96 5.96 0 1 0 11.92 0 a5.96 5.96 0 1 0 -11.92 0zM86.4 566.63L83.29 565.34L74.74 585.97L77.85 587.26zM70.34 586.61 a5.96 5.96 0 1 0 11.92 0 a5.96 5.96 0 1 0 -11.92 0zM65.19 553.25L62.81 550.87L40.73 572.94L43.11 575.32zM35.96 574.13 a5.96 5.96 0 1 0 11.92 0 a5.96 5.96 0 1 0 -11.92 0zM50.71 532.77L49.43 529.66L40.76 533.25L42.05 536.36zM35.44 534.8 a5.96 5.96 0 1 0 11.92 0 a5.96 5.96 0 1 0 -11.92 0zM45.18 508.31L45.18 504.94L16.65 504.94L16.65 508.31zM10.69 506.63 a5.96 5.96 0 1 0 11.92 0 a5.96 5.96 0 1 0 -11.92 0zM49.43 483.59L50.71 480.48L41.28 476.58L39.99 479.68zM34.68 478.13 a5.96 5.96 0 1 0 11.92 0 a5.96 5.96 0 1 0 -11.92 0zM62.81 462.38L65.19 460L44.93 439.75L42.56 442.13zM37.79 440.94 a5.96 5.96 0 1 0 11.92 0 a5.96 5.96 0 1 0 -11.92 0zM83.29 447.91L86.4 446.62L74.8 418.62L71.69 419.91zM67.28 419.26 a5.96 5.96 0 1 0 11.92 0 a5.96 5.96 0 1 0 -11.92 0zM107.75 442.38L111.11 442.38L111.11 420.17L107.75 420.17zM103.47 420.17 a5.96 5.96 0 1 0 11.92 0 a5.96 5.96 0 1 0 -11.92 0zM132.46 446.62L135.57 447.91L145.13 424.82L142.02 423.53zM137.62 424.18 a5.96 5.96 0 1 0 11.92 0 a5.96 5.96 0 1 0 -11.92 0zM153.67 460L156.05 462.38L171.68 446.76L169.3 444.38zM164.53 445.57 a5.96 5.96 0 1 0 11.92 0 a5.96 5.96 0 1 0 -11.92 0zM168.14 480.48L169.43 483.59L185.93 476.76L184.64 473.65zM179.33 475.2 a5.96 5.96 0 1 0 11.92 0 a5.96 5.96 0 1 0 -11.92 0zM45.16 506.63 a64.27 64.27 0 1 0 128.54 0 a64.27 64.27 0 1 0 -128.54 0z" fill="rgba(182, 188, 255, 1)"></path><path d="M157.42 463.87 A63.272000000000006 63.272000000000006 0 0 1 122.59 569.53M122.59 569.53 A128.544 128.544 0 0 0 157.42 463.87" fill="#5f6cff" fill-rule="nonzero"></path><path d="M135.36 455.6 a4.5 4.5 0 1 0 9 0 a4.5 4.5 0 1 0 -9 0zM47 494.89 a10.93 10.93 0 1 0 21.86 0 a10.93 10.93 0 1 0 -21.86 0zM82.22 459.86 a12.85 12.85 0 1 0 25.7 0 a12.85 12.85 0 1 0 -25.7 0zM51.45 532.46 a5.78 5.78 0 1 0 11.56 0 a5.78 5.78 0 1 0 -11.56 0zM114.21 480.11 a7.71 7.71 0 1 0 15.42 0 a7.71 7.71 0 1 0 -15.42 0zM124.64 522.93 a12.85 12.85 0 1 0 25.7 0 a12.85 12.85 0 1 0 -25.7 0zM82.53 559.82 a7.07 7.07 0 1 0 14.14 0 a7.07 7.07 0 1 0 -14.14 0zM74.28 521.37 a11.57 11.57 0 1 0 23.14 0 a11.57 11.57 0 1 0 -23.14 0zM128.32 553.39 a4.5 4.5 0 1 0 9 0 a4.5 4.5 0 1 0 -9 0zM107.94 535.19 a3.21 3.21 0 1 0 6.42 0 a3.21 3.21 0 1 0 -6.42 0z" fill="#5f6cff" fill-rule="nonzero"></path><path d="M909.25 57.72L909.25 59.4L919.94 59.4L919.94 57.72zM916.96 58.56 a2.98 2.98 0 1 0 5.96 0 a2.98 2.98 0 1 0 -5.96 0zM907.12 70.08L906.48 71.63L913.98 74.74L914.63 73.18zM911.32 73.96 a2.98 2.98 0 1 0 5.96 0 a2.98 2.98 0 1 0 -5.96 0zM900.43 80.68L899.24 81.87L904.7 87.33L905.89 86.14zM902.32 86.73 a2.98 2.98 0 1 0 5.96 0 a2.98 2.98 0 1 0 -5.96 0zM890.19 87.92L888.64 88.56L890.43 92.87L891.98 92.23zM888.22 92.55 a2.98 2.98 0 1 0 5.96 0 a2.98 2.98 0 1 0 -5.96 0zM877.96 90.68L876.28 90.68L876.28 96.68L877.96 96.68zM874.14 96.68 a2.98 2.98 0 1 0 5.96 0 a2.98 2.98 0 1 0 -5.96 0zM865.61 88.56L864.05 87.92L862.41 91.88L863.96 92.52zM860.21 92.2 a2.98 2.98 0 1 0 5.96 0 a2.98 2.98 0 1 0 -5.96 0zM855 81.87L853.81 80.68L844.51 89.98L845.7 91.17zM842.13 90.57 a2.98 2.98 0 1 0 5.96 0 a2.98 2.98 0 1 0 -5.96 0zM847.76 71.63L847.12 70.08L832.54 76.11L833.19 77.67zM829.88 76.89 a2.98 2.98 0 1 0 5.96 0 a2.98 2.98 0 1 0 -5.96 0zM845 59.4L845 57.72L834.46 57.72L834.46 59.4zM831.48 58.56 a2.98 2.98 0 1 0 5.96 0 a2.98 2.98 0 1 0 -5.96 0zM847.12 47.04L847.76 45.49L840.96 42.67L840.32 44.23zM837.66 43.45 a2.98 2.98 0 1 0 5.96 0 a2.98 2.98 0 1 0 -5.96 0zM853.81 36.44L855 35.25L849.71 29.96L848.52 31.15zM846.14 30.55 a2.98 2.98 0 1 0 5.96 0 a2.98 2.98 0 1 0 -5.96 0zM864.05 29.2L865.61 28.56L862.05 19.98L860.5 20.63zM858.3 20.31 a2.98 2.98 0 1 0 5.96 0 a2.98 2.98 0 1 0 -5.96 0zM876.28 26.43L877.96 26.43L877.96 11.79L876.28 11.79zM874.14 11.79 a2.98 2.98 0 1 0 5.96 0 a2.98 2.98 0 1 0 -5.96 0zM888.64 28.56L890.19 29.2L893.59 21.01L892.03 20.36zM889.83 20.68 a2.98 2.98 0 1 0 5.96 0 a2.98 2.98 0 1 0 -5.96 0zM899.24 35.25L900.43 36.44L904.94 31.93L903.75 30.74zM901.36 31.34 a2.98 2.98 0 1 0 5.96 0 a2.98 2.98 0 1 0 -5.96 0zM906.48 45.49L907.12 47.04L916.58 43.12L915.94 41.57zM913.28 42.35 a2.98 2.98 0 1 0 5.96 0 a2.98 2.98 0 1 0 -5.96 0zM844.98 58.56 a32.14 32.14 0 1 0 64.28 0 a32.14 32.14 0 1 0 -64.28 0z" fill="rgba(182, 188, 255, 1)"></path><path d="M899.5 81.62 A31.136000000000003 31.136000000000003 0 0 1 845.97 66.47M845.97 66.47 A64.272 64.272 0 0 0 899.5 81.62" fill="#5f6cff" fill-rule="nonzero"></path><path d="M867.32 55.78 a6.43 6.43 0 1 0 12.86 0 a6.43 6.43 0 1 0 -12.86 0zM875.42 85.95 a4.5 4.5 0 1 0 9 0 a4.5 4.5 0 1 0 -9 0zM900.75 57.92 a4.18 4.18 0 1 0 8.36 0 a4.18 4.18 0 1 0 -8.36 0zM857.25 34.8 a2.57 2.57 0 1 0 5.14 0 a2.57 2.57 0 1 0 -5.14 0zM886.82 63.44 a4.18 4.18 0 1 0 8.36 0 a4.18 4.18 0 1 0 -8.36 0zM854.05 63.21 a4.18 4.18 0 1 0 8.36 0 a4.18 4.18 0 1 0 -8.36 0zM868.83 34.61 a3.21 3.21 0 1 0 6.42 0 a3.21 3.21 0 1 0 -6.42 0zM850.16 45.48 a3.21 3.21 0 1 0 6.42 0 a3.21 3.21 0 1 0 -6.42 0zM878.58 69.28 a1.61 1.61 0 1 0 3.22 0 a1.61 1.61 0 1 0 -3.22 0zM856.26 75.69 a1.61 1.61 0 1 0 3.22 0 a1.61 1.61 0 1 0 -3.22 0z" fill="#5f6cff" fill-rule="nonzero"></path><path d="M95.75 137.4L95.75 139.08L101.19 139.08L101.19 137.4zM98.21 138.24 a2.98 2.98 0 1 0 5.96 0 a2.98 2.98 0 1 0 -5.96 0zM93.63 149.76L92.99 151.31L100.69 154.5L101.34 152.95zM98.03 153.73 a2.98 2.98 0 1 0 5.96 0 a2.98 2.98 0 1 0 -5.96 0zM86.94 160.36L85.75 161.55L96.72 172.53L97.91 171.34zM94.34 171.93 a2.98 2.98 0 1 0 5.96 0 a2.98 2.98 0 1 0 -5.96 0zM76.7 167.6L75.15 168.24L77.4 173.69L78.96 173.05zM75.2 173.37 a2.98 2.98 0 1 0 5.96 0 a2.98 2.98 0 1 0 -5.96 0zM64.47 170.37L62.79 170.37L62.79 184.62L64.47 184.62zM60.65 184.62 a2.98 2.98 0 1 0 5.96 0 a2.98 2.98 0 1 0 -5.96 0zM52.11 168.24L50.56 167.6L47.65 174.63L49.2 175.27zM45.44 174.95 a2.98 2.98 0 1 0 5.96 0 a2.98 2.98 0 1 0 -5.96 0zM41.51 161.55L40.32 160.36L29.23 171.45L30.42 172.64zM26.85 172.05 a2.98 2.98 0 1 0 5.96 0 a2.98 2.98 0 1 0 -5.96 0zM34.27 151.31L33.63 149.76L23.83 153.82L24.47 155.37zM21.17 154.6 a2.98 2.98 0 1 0 5.96 0 a2.98 2.98 0 1 0 -5.96 0zM31.5 139.08L31.5 137.4L21.04 137.4L21.04 139.08zM18.06 138.24 a2.98 2.98 0 1 0 5.96 0 a2.98 2.98 0 1 0 -5.96 0zM33.63 126.73L34.27 125.17L21.41 119.84L20.77 121.4zM18.11 120.62 a2.98 2.98 0 1 0 5.96 0 a2.98 2.98 0 1 0 -5.96 0zM40.32 116.12L41.51 114.93L36.17 109.59L34.98 110.78zM32.59 110.19 a2.98 2.98 0 1 0 5.96 0 a2.98 2.98 0 1 0 -5.96 0zM50.56 108.88L52.11 108.24L46.23 94.03L44.67 94.68zM42.47 94.35 a2.98 2.98 0 1 0 5.96 0 a2.98 2.98 0 1 0 -5.96 0zM62.79 106.12L64.47 106.12L64.47 96.68L62.79 96.68zM60.65 96.68 a2.98 2.98 0 1 0 5.96 0 a2.98 2.98 0 1 0 -5.96 0zM75.15 108.24L76.7 108.88L82.25 95.48L80.7 94.84zM78.5 95.16 a2.98 2.98 0 1 0 5.96 0 a2.98 2.98 0 1 0 -5.96 0zM85.75 114.93L86.94 116.12L93.16 109.91L91.97 108.72zM89.58 109.31 a2.98 2.98 0 1 0 5.96 0 a2.98 2.98 0 1 0 -5.96 0zM92.99 125.17L93.63 126.73L107.55 120.96L106.91 119.4zM104.25 120.18 a2.98 2.98 0 1 0 5.96 0 a2.98 2.98 0 1 0 -5.96 0zM31.49 138.24 a32.14 32.14 0 1 0 64.28 0 a32.14 32.14 0 1 0 -64.28 0z" fill="rgba(182, 188, 255, 1)"></path><path d="M95.73 139.67 A31.136000000000003 31.136000000000003 0 0 1 46.4 165.37M46.4 165.37 A64.272 64.272 0 0 0 95.73 139.67" fill="#5f6cff" fill-rule="nonzero"></path><path d="M67.1 159.22 a6.43 6.43 0 1 0 12.86 0 a6.43 6.43 0 1 0 -12.86 0zM31.83 140.74 a4.5 4.5 0 1 0 9 0 a4.5 4.5 0 1 0 -9 0zM72.99 140.58 a6.43 6.43 0 1 0 12.86 0 a6.43 6.43 0 1 0 -12.86 0zM40.55 117.58 a3.54 3.54 0 1 0 7.08 0 a3.54 3.54 0 1 0 -7.08 0zM67.42 118.96 a6.43 6.43 0 1 0 12.86 0 a6.43 6.43 0 1 0 -12.86 0zM49.4 163.81 a4.82 4.82 0 1 0 9.64 0 a4.82 4.82 0 1 0 -9.64 0zM43.34 150.02 a1.61 1.61 0 1 0 3.22 0 a1.61 1.61 0 1 0 -3.22 0zM90.89 133.93 a1.61 1.61 0 1 0 3.22 0 a1.61 1.61 0 1 0 -3.22 0zM58.59 108.22 a1.61 1.61 0 1 0 3.22 0 a1.61 1.61 0 1 0 -3.22 0zM55.05 149.89 a3.21 3.21 0 1 0 6.42 0 a3.21 3.21 0 1 0 -6.42 0z" fill="#5f6cff" fill-rule="nonzero"></path><path d="M707.2 696.56L707.2 698.24L718.63 698.24L718.63 696.56zM715.65 697.4 a2.98 2.98 0 1 0 5.96 0 a2.98 2.98 0 1 0 -5.96 0zM705.07 708.91L704.43 710.47L714.73 714.74L715.38 713.18zM712.07 713.96 a2.98 2.98 0 1 0 5.96 0 a2.98 2.98 0 1 0 -5.96 0zM698.38 719.52L697.19 720.71L702.03 725.55L703.22 724.36zM699.64 724.95 a2.98 2.98 0 1 0 5.96 0 a2.98 2.98 0 1 0 -5.96 0zM688.14 726.76L686.59 727.4L689.62 734.71L691.17 734.06zM687.41 734.39 a2.98 2.98 0 1 0 5.96 0 a2.98 2.98 0 1 0 -5.96 0zM675.91 729.52L674.23 729.52L674.23 734.25L675.91 734.25zM672.09 734.25 a2.98 2.98 0 1 0 5.96 0 a2.98 2.98 0 1 0 -5.96 0zM663.56 727.4L662 726.76L656.88 739.11L658.44 739.75zM654.68 739.43 a2.98 2.98 0 1 0 5.96 0 a2.98 2.98 0 1 0 -5.96 0zM652.95 720.71L651.76 719.52L643.01 728.27L644.2 729.46zM640.62 728.87 a2.98 2.98 0 1 0 5.96 0 a2.98 2.98 0 1 0 -5.96 0zM645.71 710.47L645.07 708.91L637.81 711.92L638.45 713.48zM635.15 712.7 a2.98 2.98 0 1 0 5.96 0 a2.98 2.98 0 1 0 -5.96 0zM642.95 698.24L642.95 696.56L633.73 696.56L633.73 698.24zM630.75 697.4 a2.98 2.98 0 1 0 5.96 0 a2.98 2.98 0 1 0 -5.96 0zM645.07 685.88L645.71 684.33L637.39 680.88L636.75 682.43zM634.09 681.66 a2.98 2.98 0 1 0 5.96 0 a2.98 2.98 0 1 0 -5.96 0zM651.76 675.28L652.95 674.09L644.01 665.15L642.82 666.34zM640.44 665.74 a2.98 2.98 0 1 0 5.96 0 a2.98 2.98 0 1 0 -5.96 0zM662 668.04L663.56 667.4L660.21 659.33L658.66 659.98zM656.46 659.65 a2.98 2.98 0 1 0 5.96 0 a2.98 2.98 0 1 0 -5.96 0zM674.23 665.27L675.91 665.27L675.91 649.92L674.23 649.92zM672.09 649.92 a2.98 2.98 0 1 0 5.96 0 a2.98 2.98 0 1 0 -5.96 0zM686.59 667.4L688.14 668.04L690.91 661.36L689.36 660.72zM687.15 661.04 a2.98 2.98 0 1 0 5.96 0 a2.98 2.98 0 1 0 -5.96 0zM697.19 674.09L698.38 675.28L704.49 669.17L703.3 667.98zM700.92 668.57 a2.98 2.98 0 1 0 5.96 0 a2.98 2.98 0 1 0 -5.96 0zM704.43 684.33L705.07 685.88L710.39 683.68L709.74 682.13zM707.08 682.9 a2.98 2.98 0 1 0 5.96 0 a2.98 2.98 0 1 0 -5.96 0zM642.93 697.4 a32.14 32.14 0 1 0 64.28 0 a32.14 32.14 0 1 0 -64.28 0z" fill="rgba(182, 188, 255, 1)"></path><path d="M707.21 697.48 A31.136000000000003 31.136000000000003 0 0 1 658.99 725.22M658.99 725.22 A64.272 64.272 0 0 0 707.21 697.48" fill="#5f6cff" fill-rule="nonzero"></path><path d="M673.03 672.12 a6.43 6.43 0 1 0 12.86 0 a6.43 6.43 0 1 0 -12.86 0zM688.02 690.14 a6.43 6.43 0 1 0 12.86 0 a6.43 6.43 0 1 0 -12.86 0zM663.66 681.38 a2.89 2.89 0 1 0 5.78 0 a2.89 2.89 0 1 0 -5.78 0zM644.3 689.61 a3.86 3.86 0 1 0 7.72 0 a3.86 3.86 0 1 0 -7.72 0zM649.67 706.82 a6.43 6.43 0 1 0 12.86 0 a6.43 6.43 0 1 0 -12.86 0zM680.01 697.02 a1.61 1.61 0 1 0 3.22 0 a1.61 1.61 0 1 0 -3.22 0zM673.44 706.72 a2.89 2.89 0 1 0 5.78 0 a2.89 2.89 0 1 0 -5.78 0zM676.38 718.2 a2.25 2.25 0 1 0 4.5 0 a2.25 2.25 0 1 0 -4.5 0zM670.02 691.54 a2.25 2.25 0 1 0 4.5 0 a2.25 2.25 0 1 0 -4.5 0zM656.79 674.51 a1.29 1.29 0 1 0 2.58 0 a1.29 1.29 0 1 0 -2.58 0z" fill="#5f6cff" fill-rule="nonzero"></path><path d="M500.53 578.2L500.53 581.57L514.34 581.57L514.34 578.2zM508.38 579.88 a5.96 5.96 0 1 0 11.92 0 a5.96 5.96 0 1 0 -11.92 0zM496.28 602.92L495 606.02L510.55 612.47L511.84 609.36zM505.24 610.91 a5.96 5.96 0 1 0 11.92 0 a5.96 5.96 0 1 0 -11.92 0zM482.9 624.12L480.52 626.5L492.2 638.18L494.58 635.8zM487.43 636.99 a5.96 5.96 0 1 0 11.92 0 a5.96 5.96 0 1 0 -11.92 0zM462.42 638.6L459.31 639.89L468.01 660.88L471.12 659.59zM463.6 660.23 a5.96 5.96 0 1 0 11.92 0 a5.96 5.96 0 1 0 -11.92 0zM437.96 644.13L434.6 644.13L434.6 658.52L437.96 658.52zM430.32 658.52 a5.96 5.96 0 1 0 11.92 0 a5.96 5.96 0 1 0 -11.92 0zM413.25 639.89L410.14 638.6L400.85 661.01L403.96 662.3zM396.45 661.66 a5.96 5.96 0 1 0 11.92 0 a5.96 5.96 0 1 0 -11.92 0zM392.04 626.5L389.66 624.12L367.68 646.1L370.06 648.48zM362.91 647.29 a5.96 5.96 0 1 0 11.92 0 a5.96 5.96 0 1 0 -11.92 0zM377.57 606.02L376.28 602.92L359.59 609.83L360.88 612.94zM354.28 611.38 a5.96 5.96 0 1 0 11.92 0 a5.96 5.96 0 1 0 -11.92 0zM372.03 581.57L372.03 578.2L346.63 578.2L346.63 581.57zM340.67 579.88 a5.96 5.96 0 1 0 11.92 0 a5.96 5.96 0 1 0 -11.92 0zM376.28 556.85L377.57 553.74L355.07 544.42L353.78 547.53zM348.46 545.98 a5.96 5.96 0 1 0 11.92 0 a5.96 5.96 0 1 0 -11.92 0zM389.66 535.64L392.04 533.26L373.71 514.93L371.33 517.31zM366.56 516.12 a5.96 5.96 0 1 0 11.92 0 a5.96 5.96 0 1 0 -11.92 0zM410.14 521.17L413.25 519.88L409.88 511.75L406.77 513.04zM402.37 512.39 a5.96 5.96 0 1 0 11.92 0 a5.96 5.96 0 1 0 -11.92 0zM434.6 515.63L437.96 515.63L437.96 490.91L434.6 490.91zM430.32 490.91 a5.96 5.96 0 1 0 11.92 0 a5.96 5.96 0 1 0 -11.92 0zM459.31 519.88L462.42 521.17L466.92 510.3L463.81 509.01zM459.41 509.66 a5.96 5.96 0 1 0 11.92 0 a5.96 5.96 0 1 0 -11.92 0zM480.52 533.26L482.9 535.64L493.77 524.77L491.39 522.39zM486.62 523.58 a5.96 5.96 0 1 0 11.92 0 a5.96 5.96 0 1 0 -11.92 0zM495 553.74L496.28 556.85L509.31 551.45L508.02 548.34zM502.71 549.9 a5.96 5.96 0 1 0 11.92 0 a5.96 5.96 0 1 0 -11.92 0zM372.01 579.88 a64.27 64.27 0 1 0 128.54 0 a64.27 64.27 0 1 0 -128.54 0z" fill="rgba(182, 188, 255, 1)"></path><path d="M375.05 599.42 A63.272000000000006 63.272000000000006 0 0 1 449.84 517.06M449.84 517.06 A128.544 128.544 0 0 0 375.05 599.42" fill="#5f6cff" fill-rule="nonzero"></path><path d="M472.89 543.8 a7.07 7.07 0 1 0 14.14 0 a7.07 7.07 0 1 0 -14.14 0zM478.99 572.45 a9.64 9.64 0 1 0 19.28 0 a9.64 9.64 0 1 0 -19.28 0zM425.16 610.65 a12.85 12.85 0 1 0 25.7 0 a12.85 12.85 0 1 0 -25.7 0zM379.95 597.53 a12.85 12.85 0 1 0 25.7 0 a12.85 12.85 0 1 0 -25.7 0zM463.37 605.4 a9.64 9.64 0 1 0 19.28 0 a9.64 9.64 0 1 0 -19.28 0zM417.95 588.25 a2.57 2.57 0 1 0 5.14 0 a2.57 2.57 0 1 0 -5.14 0zM414.31 522.44 a3.86 3.86 0 1 0 7.72 0 a3.86 3.86 0 1 0 -7.72 0zM385.67 562 a9.64 9.64 0 1 0 19.28 0 a9.64 9.64 0 1 0 -19.28 0zM450.65 530.13 a6.43 6.43 0 1 0 12.86 0 a6.43 6.43 0 1 0 -12.86 0zM449.43 578.4 a8.36 8.36 0 1 0 16.72 0 a8.36 8.36 0 1 0 -16.72 0z" fill="#5f6cff" fill-rule="nonzero"></path><path d="M1273.89 139.37L1273.89 141.47L1285.91 141.47L1285.91 139.37zM1282.19 140.42 a3.72 3.72 0 1 0 7.44 0 a3.72 3.72 0 1 0 -7.44 0zM1271.23 154.81L1270.43 156.76L1280.42 160.9L1281.23 158.95zM1277.11 159.93 a3.72 3.72 0 1 0 7.44 0 a3.72 3.72 0 1 0 -7.44 0zM1262.87 168.07L1261.38 169.56L1267.97 176.15L1269.46 174.66zM1264.99 175.4 a3.72 3.72 0 1 0 7.44 0 a3.72 3.72 0 1 0 -7.44 0zM1250.07 177.11L1248.13 177.92L1254.18 192.53L1256.12 191.72zM1251.43 192.12 a3.72 3.72 0 1 0 7.44 0 a3.72 3.72 0 1 0 -7.44 0zM1234.78 180.57L1232.68 180.57L1232.68 185.78L1234.78 185.78zM1230.01 185.78 a3.72 3.72 0 1 0 7.44 0 a3.72 3.72 0 1 0 -7.44 0zM1219.33 177.92L1217.39 177.11L1209.84 195.35L1211.78 196.16zM1207.09 195.75 a3.72 3.72 0 1 0 7.44 0 a3.72 3.72 0 1 0 -7.44 0zM1206.08 169.56L1204.59 168.07L1194.22 178.44L1195.71 179.93zM1191.24 179.19 a3.72 3.72 0 1 0 7.44 0 a3.72 3.72 0 1 0 -7.44 0zM1197.03 156.76L1196.23 154.81L1185.93 159.08L1186.73 161.02zM1182.61 160.05 a3.72 3.72 0 1 0 7.44 0 a3.72 3.72 0 1 0 -7.44 0zM1193.57 141.47L1193.57 139.37L1175.64 139.37L1175.64 141.47zM1171.92 140.42 a3.72 3.72 0 1 0 7.44 0 a3.72 3.72 0 1 0 -7.44 0zM1196.23 126.02L1197.03 124.08L1189.96 121.15L1189.16 123.09zM1185.84 122.12 a3.72 3.72 0 1 0 7.44 0 a3.72 3.72 0 1 0 -7.44 0zM1204.59 112.77L1206.08 111.28L1194.39 99.59L1192.9 101.08zM1189.93 100.33 a3.72 3.72 0 1 0 7.44 0 a3.72 3.72 0 1 0 -7.44 0zM1217.39 103.72L1219.33 102.92L1213.13 87.95L1211.19 88.75zM1208.44 88.35 a3.72 3.72 0 1 0 7.44 0 a3.72 3.72 0 1 0 -7.44 0zM1232.68 100.26L1234.78 100.26L1234.78 87.42L1232.68 87.42zM1230.01 87.42 a3.72 3.72 0 1 0 7.44 0 a3.72 3.72 0 1 0 -7.44 0zM1248.13 102.92L1250.07 103.72L1253.62 95.14L1251.68 94.33zM1248.93 94.74 a3.72 3.72 0 1 0 7.44 0 a3.72 3.72 0 1 0 -7.44 0zM1261.38 111.28L1262.87 112.77L1272.68 102.96L1271.19 101.47zM1268.21 102.22 a3.72 3.72 0 1 0 7.44 0 a3.72 3.72 0 1 0 -7.44 0zM1270.43 124.08L1271.23 126.02L1279.96 122.41L1279.16 120.46zM1275.84 121.43 a3.72 3.72 0 1 0 7.44 0 a3.72 3.72 0 1 0 -7.44 0zM1193.56 140.42 a40.17 40.17 0 1 0 80.34 0 a40.17 40.17 0 1 0 -80.34 0z" fill="rgba(182, 188, 255, 1)"></path><path d="M1206.06 111.3 A39.17 39.17 0 0 1 1272.76 130.93M1272.76 130.93 A80.34 80.34 0 0 0 1206.06 111.3" fill="#5f6cff" fill-rule="nonzero"></path><path d="M1194.93 149.57 a6.03 6.03 0 1 0 12.06 0 a6.03 6.03 0 1 0 -12.06 0zM1249.12 161.71 a8.03 8.03 0 1 0 16.06 0 a8.03 8.03 0 1 0 -16.06 0zM1230.88 128.95 a8.03 8.03 0 1 0 16.06 0 a8.03 8.03 0 1 0 -16.06 0zM1199.13 126.22 a8.03 8.03 0 1 0 16.06 0 a8.03 8.03 0 1 0 -16.06 0zM1209.57 162.55 a4.02 4.02 0 1 0 8.04 0 a4.02 4.02 0 1 0 -8.04 0zM1268.4 145.01 a2.41 2.41 0 1 0 4.82 0 a2.41 2.41 0 1 0 -4.82 0zM1243.12 109.51 a5.62 5.62 0 1 0 11.24 0 a5.62 5.62 0 1 0 -11.24 0zM1238.7 172.92 a2.81 2.81 0 1 0 5.62 0 a2.81 2.81 0 1 0 -5.62 0zM1255.17 128.01 a1.61 1.61 0 1 0 3.22 0 a1.61 1.61 0 1 0 -3.22 0zM1221.73 150.43 a6.83 6.83 0 1 0 13.66 0 a6.83 6.83 0 1 0 -13.66 0z" fill="#5f6cff" fill-rule="nonzero"></path><path d="M1049.99 417.12L1049.99 420.48L1073.53 420.48L1073.53 417.12zM1067.57 418.8 a5.96 5.96 0 1 0 11.92 0 a5.96 5.96 0 1 0 -11.92 0zM1045.74 441.83L1044.45 444.94L1064.31 453.17L1065.6 450.06zM1058.99 451.61 a5.96 5.96 0 1 0 11.92 0 a5.96 5.96 0 1 0 -11.92 0zM1032.36 463.04L1029.98 465.42L1046.92 482.36L1049.3 479.98zM1042.15 481.17 a5.96 5.96 0 1 0 11.92 0 a5.96 5.96 0 1 0 -11.92 0zM1011.88 477.52L1008.77 478.8L1019.01 503.52L1022.12 502.23zM1014.6 502.87 a5.96 5.96 0 1 0 11.92 0 a5.96 5.96 0 1 0 -11.92 0zM987.42 483.05L984.06 483.05L984.06 508.47L987.42 508.47zM979.78 508.47 a5.96 5.96 0 1 0 11.92 0 a5.96 5.96 0 1 0 -11.92 0zM962.71 478.8L959.6 477.52L952.98 493.48L956.09 494.77zM948.58 494.13 a5.96 5.96 0 1 0 11.92 0 a5.96 5.96 0 1 0 -11.92 0zM941.5 465.42L939.12 463.04L920 482.16L922.38 484.54zM915.23 483.35 a5.96 5.96 0 1 0 11.92 0 a5.96 5.96 0 1 0 -11.92 0zM927.02 444.94L925.74 441.83L900.14 452.44L901.43 455.54zM894.83 453.99 a5.96 5.96 0 1 0 11.92 0 a5.96 5.96 0 1 0 -11.92 0zM921.49 420.48L921.49 417.12L912.89 417.12L912.89 420.48zM906.93 418.8 a5.96 5.96 0 1 0 11.92 0 a5.96 5.96 0 1 0 -11.92 0zM925.74 395.77L927.02 392.66L907.07 384.39L905.78 387.5zM900.46 385.95 a5.96 5.96 0 1 0 11.92 0 a5.96 5.96 0 1 0 -11.92 0zM939.12 374.56L941.5 372.18L933.24 363.92L930.86 366.3zM926.09 365.11 a5.96 5.96 0 1 0 11.92 0 a5.96 5.96 0 1 0 -11.92 0zM959.6 360.09L962.71 358.8L953.18 335.79L950.07 337.08zM945.66 336.44 a5.96 5.96 0 1 0 11.92 0 a5.96 5.96 0 1 0 -11.92 0zM984.06 354.55L987.42 354.55L987.42 336.26L984.06 336.26zM979.78 336.26 a5.96 5.96 0 1 0 11.92 0 a5.96 5.96 0 1 0 -11.92 0zM1008.77 358.8L1011.88 360.09L1020.78 338.61L1017.67 337.32zM1013.26 337.96 a5.96 5.96 0 1 0 11.92 0 a5.96 5.96 0 1 0 -11.92 0zM1029.98 372.18L1032.36 374.56L1041.14 365.78L1038.76 363.41zM1033.99 364.59 a5.96 5.96 0 1 0 11.92 0 a5.96 5.96 0 1 0 -11.92 0zM1044.45 392.66L1045.74 395.77L1073.35 384.33L1072.06 381.23zM1066.74 382.78 a5.96 5.96 0 1 0 11.92 0 a5.96 5.96 0 1 0 -11.92 0zM921.47 418.8 a64.27 64.27 0 1 0 128.54 0 a64.27 64.27 0 1 0 -128.54 0z" fill="rgba(182, 188, 255, 1)"></path><path d="M977.66 482.56 A63.272000000000006 63.272000000000006 0 0 1 934.48 380.03M934.48 380.03 A128.544 128.544 0 0 0 977.66 482.56" fill="#5f6cff" fill-rule="nonzero"></path><path d="M944.64 375.58 a11.57 11.57 0 1 0 23.14 0 a11.57 11.57 0 1 0 -23.14 0zM979.42 472.1 a10.28 10.28 0 1 0 20.56 0 a10.28 10.28 0 1 0 -20.56 0zM996.46 390.78 a12.85 12.85 0 1 0 25.7 0 a12.85 12.85 0 1 0 -25.7 0zM922.96 428.91 a10.93 10.93 0 1 0 21.86 0 a10.93 10.93 0 1 0 -21.86 0zM984.88 436.63 a12.85 12.85 0 1 0 25.7 0 a12.85 12.85 0 1 0 -25.7 0zM1029.76 445.77 a6.43 6.43 0 1 0 12.86 0 a6.43 6.43 0 1 0 -12.86 0zM941.3 459.88 a10.28 10.28 0 1 0 20.56 0 a10.28 10.28 0 1 0 -20.56 0zM955.46 408.12 a8.36 8.36 0 1 0 16.72 0 a8.36 8.36 0 1 0 -16.72 0zM1038.43 407.13 a5.14 5.14 0 1 0 10.28 0 a5.14 5.14 0 1 0 -10.28 0zM975.78 359.31 a2.57 2.57 0 1 0 5.14 0 a2.57 2.57 0 1 0 -5.14 0z" fill="#5f6cff" fill-rule="nonzero"></path><path d="M322.38 245.11L322.38 248.48L344.71 248.48L344.71 245.11zM338.75 246.79 a5.96 5.96 0 1 0 11.92 0 a5.96 5.96 0 1 0 -11.92 0zM318.13 269.83L316.84 272.94L329.76 278.29L331.05 275.18zM324.44 276.73 a5.96 5.96 0 1 0 11.92 0 a5.96 5.96 0 1 0 -11.92 0zM304.75 291.04L302.37 293.42L320.05 311.1L322.43 308.72zM315.28 309.91 a5.96 5.96 0 1 0 11.92 0 a5.96 5.96 0 1 0 -11.92 0zM284.27 305.51L281.16 306.8L287.96 323.22L291.07 321.94zM283.56 322.58 a5.96 5.96 0 1 0 11.92 0 a5.96 5.96 0 1 0 -11.92 0zM259.81 311.04L256.44 311.04L256.44 335.77L259.81 335.77zM252.17 335.77 a5.96 5.96 0 1 0 11.92 0 a5.96 5.96 0 1 0 -11.92 0zM235.09 306.8L231.99 305.51L222.89 327.47L226 328.76zM218.48 328.11 a5.96 5.96 0 1 0 11.92 0 a5.96 5.96 0 1 0 -11.92 0zM213.89 293.42L211.51 291.04L195.04 307.5L197.42 309.88zM190.27 308.69 a5.96 5.96 0 1 0 11.92 0 a5.96 5.96 0 1 0 -11.92 0zM199.41 272.94L198.12 269.83L187.03 274.42L188.32 277.53zM181.71 275.98 a5.96 5.96 0 1 0 11.92 0 a5.96 5.96 0 1 0 -11.92 0zM193.88 248.48L193.88 245.11L162.6 245.11L162.6 248.48zM156.64 246.79 a5.96 5.96 0 1 0 11.92 0 a5.96 5.96 0 1 0 -11.92 0zM198.12 223.76L199.41 220.65L186.46 215.29L185.17 218.4zM179.86 216.84 a5.96 5.96 0 1 0 11.92 0 a5.96 5.96 0 1 0 -11.92 0zM211.51 202.55L213.89 200.17L197.82 184.11L195.44 186.49zM190.67 185.3 a5.96 5.96 0 1 0 11.92 0 a5.96 5.96 0 1 0 -11.92 0zM231.99 188.08L235.09 186.79L223.84 159.61L220.73 160.9zM216.32 160.25 a5.96 5.96 0 1 0 11.92 0 a5.96 5.96 0 1 0 -11.92 0zM256.44 182.54L259.81 182.54L259.81 156.42L256.44 156.42zM252.17 156.42 a5.96 5.96 0 1 0 11.92 0 a5.96 5.96 0 1 0 -11.92 0zM281.16 186.79L284.27 188.08L289.77 174.8L286.66 173.51zM282.25 174.16 a5.96 5.96 0 1 0 11.92 0 a5.96 5.96 0 1 0 -11.92 0zM302.37 200.17L304.75 202.55L327.16 180.14L324.78 177.76zM320.01 178.95 a5.96 5.96 0 1 0 11.92 0 a5.96 5.96 0 1 0 -11.92 0zM316.84 220.65L318.13 223.76L342.97 213.47L341.69 210.36zM336.37 211.92 a5.96 5.96 0 1 0 11.92 0 a5.96 5.96 0 1 0 -11.92 0zM193.86 246.79 a64.27 64.27 0 1 0 128.54 0 a64.27 64.27 0 1 0 -128.54 0z" fill="rgba(182, 188, 255, 1)"></path><path d="M281.97 187.11 A63.272000000000006 63.272000000000006 0 0 1 298 297.21M298 297.21 A128.544 128.544 0 0 0 281.97 187.11" fill="#5f6cff" fill-rule="nonzero"></path><path d="M293.13 230.36 a12.85 12.85 0 1 0 25.7 0 a12.85 12.85 0 1 0 -25.7 0zM233.33 220.14 a12.85 12.85 0 1 0 25.7 0 a12.85 12.85 0 1 0 -25.7 0zM202.69 250.2 a12.85 12.85 0 1 0 25.7 0 a12.85 12.85 0 1 0 -25.7 0zM292.24 260.45 a5.14 5.14 0 1 0 10.28 0 a5.14 5.14 0 1 0 -10.28 0zM226.61 195.57 a3.21 3.21 0 1 0 6.42 0 a3.21 3.21 0 1 0 -6.42 0zM205.99 282.67 a3.86 3.86 0 1 0 7.72 0 a3.86 3.86 0 1 0 -7.72 0zM229.92 273.04 a2.57 2.57 0 1 0 5.14 0 a2.57 2.57 0 1 0 -5.14 0zM243.79 306.68 a3.21 3.21 0 1 0 6.42 0 a3.21 3.21 0 1 0 -6.42 0zM268.18 291.09 a12.85 12.85 0 1 0 25.7 0 a12.85 12.85 0 1 0 -25.7 0zM259.85 194.29 a7.71 7.71 0 1 0 15.42 0 a7.71 7.71 0 1 0 -15.42 0z" fill="#5f6cff" fill-rule="nonzero"></path><path d="M1208.26 604.56L1208.26 607.08L1226.32 607.08L1226.32 604.56zM1221.85 605.82 a4.47 4.47 0 1 0 8.94 0 a4.47 4.47 0 1 0 -8.94 0zM1205.07 623.1L1204.11 625.43L1224.84 634.02L1225.8 631.68zM1220.85 632.85 a4.47 4.47 0 1 0 8.94 0 a4.47 4.47 0 1 0 -8.94 0zM1195.04 639L1193.25 640.79L1206.86 654.4L1208.65 652.61zM1203.28 653.51 a4.47 4.47 0 1 0 8.94 0 a4.47 4.47 0 1 0 -8.94 0zM1179.68 649.86L1177.34 650.82L1183.97 666.82L1186.3 665.85zM1180.66 666.33 a4.47 4.47 0 1 0 8.94 0 a4.47 4.47 0 1 0 -8.94 0zM1161.33 654.01L1158.81 654.01L1158.81 664.43L1161.33 664.43zM1155.6 664.43 a4.47 4.47 0 1 0 8.94 0 a4.47 4.47 0 1 0 -8.94 0zM1142.79 650.82L1140.46 649.86L1133.79 665.98L1136.12 666.95zM1130.48 666.46 a4.47 4.47 0 1 0 8.94 0 a4.47 4.47 0 1 0 -8.94 0zM1126.89 640.79L1125.1 639L1112.39 651.72L1114.17 653.5zM1108.81 652.61 a4.47 4.47 0 1 0 8.94 0 a4.47 4.47 0 1 0 -8.94 0zM1116.03 625.43L1115.07 623.1L1096.31 630.86L1097.28 633.2zM1092.33 632.03 a4.47 4.47 0 1 0 8.94 0 a4.47 4.47 0 1 0 -8.94 0zM1111.88 607.08L1111.88 604.56L1092.88 604.56L1092.88 607.08zM1088.41 605.82 a4.47 4.47 0 1 0 8.94 0 a4.47 4.47 0 1 0 -8.94 0zM1115.07 588.55L1116.03 586.22L1104.48 581.43L1103.51 583.76zM1099.52 582.59 a4.47 4.47 0 1 0 8.94 0 a4.47 4.47 0 1 0 -8.94 0zM1125.1 572.64L1126.89 570.86L1114.32 558.29L1112.54 560.07zM1108.96 559.18 a4.47 4.47 0 1 0 8.94 0 a4.47 4.47 0 1 0 -8.94 0zM1140.46 561.79L1142.79 560.82L1140.24 554.66L1137.91 555.62zM1134.61 555.14 a4.47 4.47 0 1 0 8.94 0 a4.47 4.47 0 1 0 -8.94 0zM1158.81 557.63L1161.33 557.63L1161.33 534.98L1158.81 534.98zM1155.6 534.98 a4.47 4.47 0 1 0 8.94 0 a4.47 4.47 0 1 0 -8.94 0zM1177.34 560.82L1179.68 561.79L1186.1 546.28L1183.77 545.32zM1180.46 545.8 a4.47 4.47 0 1 0 8.94 0 a4.47 4.47 0 1 0 -8.94 0zM1193.25 570.86L1195.04 572.64L1201.97 565.7L1200.19 563.92zM1196.61 564.81 a4.47 4.47 0 1 0 8.94 0 a4.47 4.47 0 1 0 -8.94 0zM1204.11 586.22L1205.07 588.55L1218.14 583.13L1217.18 580.8zM1213.19 581.97 a4.47 4.47 0 1 0 8.94 0 a4.47 4.47 0 1 0 -8.94 0zM1111.87 605.82 a48.2 48.2 0 1 0 96.4 0 a48.2 48.2 0 1 0 -96.4 0z" fill="rgba(182, 188, 255, 1)"></path><path d="M1140.47 649.86 A47.204 47.204 0 0 1 1131.65 566.89M1131.65 566.89 A96.408 96.408 0 0 0 1140.47 649.86" fill="#5f6cff" fill-rule="nonzero"></path><path d="M1163.45 629.14 a9.64 9.64 0 1 0 19.28 0 a9.64 9.64 0 1 0 -19.28 0zM1184.25 590.14 a9.64 9.64 0 1 0 19.28 0 a9.64 9.64 0 1 0 -19.28 0zM1161.09 570.95 a9.64 9.64 0 1 0 19.28 0 a9.64 9.64 0 1 0 -19.28 0zM1143.61 567.77 a3.86 3.86 0 1 0 7.72 0 a3.86 3.86 0 1 0 -7.72 0zM1179.9 608.11 a1.93 1.93 0 1 0 3.86 0 a1.93 1.93 0 1 0 -3.86 0zM1190.62 620.45 a2.89 2.89 0 1 0 5.78 0 a2.89 2.89 0 1 0 -5.78 0zM1122.02 583.71 a9.16 9.16 0 1 0 18.32 0 a9.16 9.16 0 1 0 -18.32 0zM1154.41 649.6 a4.34 4.34 0 1 0 8.68 0 a4.34 4.34 0 1 0 -8.68 0zM1137.97 638.94 a4.82 4.82 0 1 0 9.64 0 a4.82 4.82 0 1 0 -9.64 0zM1153.01 591.79 a4.82 4.82 0 1 0 9.64 0 a4.82 4.82 0 1 0 -9.64 0z" fill="#5f6cff" fill-rule="nonzero"></path><path d="M792.54 336.31L792.54 339.25L800.77 339.25L800.77 336.31zM795.56 337.78 a5.21 5.21 0 1 0 10.42 0 a5.21 5.21 0 1 0 -10.42 0zM788.82 357.93L787.7 360.65L811.94 370.69L813.07 367.97zM807.29 369.33 a5.21 5.21 0 1 0 10.42 0 a5.21 5.21 0 1 0 -10.42 0zM777.12 376.49L775.03 378.57L790.51 394.04L792.59 391.96zM786.34 393 a5.21 5.21 0 1 0 10.42 0 a5.21 5.21 0 1 0 -10.42 0zM759.2 389.15L756.48 390.28L759.5 397.58L762.22 396.45zM755.65 397.02 a5.21 5.21 0 1 0 10.42 0 a5.21 5.21 0 1 0 -10.42 0zM737.79 394L734.85 394L734.85 410.54L737.79 410.54zM731.11 410.54 a5.21 5.21 0 1 0 10.42 0 a5.21 5.21 0 1 0 -10.42 0zM716.17 390.28L713.45 389.15L710.73 395.72L713.45 396.85zM706.88 396.29 a5.21 5.21 0 1 0 10.42 0 a5.21 5.21 0 1 0 -10.42 0zM697.61 378.57L695.53 376.49L681 391.01L683.09 393.1zM676.84 392.06 a5.21 5.21 0 1 0 10.42 0 a5.21 5.21 0 1 0 -10.42 0zM684.95 360.65L683.82 357.93L675.01 361.58L676.13 364.3zM670.36 362.94 a5.21 5.21 0 1 0 10.42 0 a5.21 5.21 0 1 0 -10.42 0zM680.1 339.25L680.1 336.31L666.18 336.31L666.18 339.25zM660.97 337.78 a5.21 5.21 0 1 0 10.42 0 a5.21 5.21 0 1 0 -10.42 0zM683.82 317.63L684.95 314.9L667.53 307.69L666.4 310.41zM661.76 309.05 a5.21 5.21 0 1 0 10.42 0 a5.21 5.21 0 1 0 -10.42 0zM695.53 299.07L697.61 296.99L685.11 284.48L683.03 286.57zM678.86 285.52 a5.21 5.21 0 1 0 10.42 0 a5.21 5.21 0 1 0 -10.42 0zM713.45 286.4L716.17 285.28L713.14 277.96L710.42 279.09zM706.57 278.52 a5.21 5.21 0 1 0 10.42 0 a5.21 5.21 0 1 0 -10.42 0zM734.85 281.56L737.79 281.56L737.79 265.47L734.85 265.47zM731.11 265.47 a5.21 5.21 0 1 0 10.42 0 a5.21 5.21 0 1 0 -10.42 0zM756.48 285.28L759.2 286.4L762.22 279.1L759.5 277.97zM755.65 278.53 a5.21 5.21 0 1 0 10.42 0 a5.21 5.21 0 1 0 -10.42 0zM775.03 296.99L777.12 299.07L783.68 292.5L781.6 290.42zM777.43 291.46 a5.21 5.21 0 1 0 10.42 0 a5.21 5.21 0 1 0 -10.42 0zM787.7 314.9L788.82 317.63L808.43 309.5L807.3 306.78zM802.66 308.14 a5.21 5.21 0 1 0 10.42 0 a5.21 5.21 0 1 0 -10.42 0zM680.08 337.78 a56.24 56.24 0 1 0 112.48 0 a56.24 56.24 0 1 0 -112.48 0z" fill="rgba(182, 188, 255, 1)"></path><path d="M700.34 294.56 A55.238 55.238 0 0 1 791.72 328.11M791.72 328.11 A112.476 112.476 0 0 0 700.34 294.56" fill="#5f6cff" fill-rule="nonzero"></path><path d="M757.26 318.62 a11.25 11.25 0 1 0 22.5 0 a11.25 11.25 0 1 0 -22.5 0zM712.35 385.5 a3.94 3.94 0 1 0 7.88 0 a3.94 3.94 0 1 0 -7.88 0zM774.29 343.22 a3.37 3.37 0 1 0 6.74 0 a3.37 3.37 0 1 0 -6.74 0zM739.23 320.8 a3.37 3.37 0 1 0 6.74 0 a3.37 3.37 0 1 0 -6.74 0zM692.33 352.77 a11.25 11.25 0 1 0 22.5 0 a11.25 11.25 0 1 0 -22.5 0zM759.88 375.43 a7.31 7.31 0 1 0 14.62 0 a7.31 7.31 0 1 0 -14.62 0zM698.58 300.98 a10.12 10.12 0 1 0 20.24 0 a10.12 10.12 0 1 0 -20.24 0zM719.96 335.3 a5.06 5.06 0 1 0 10.12 0 a5.06 5.06 0 1 0 -10.12 0zM780.2 360.62 a2.25 2.25 0 1 0 4.5 0 a2.25 2.25 0 1 0 -4.5 0zM741.55 372.89 a3.37 3.37 0 1 0 6.74 0 a3.37 3.37 0 1 0 -6.74 0z" fill="#5f6cff" fill-rule="nonzero"></path></g><defs><mask id="SvgjsMask1011"><rect width="1300" height="750" fill="#ffffff"></rect></mask></defs></svg>